<svg width="524" height="641" viewBox="0 0 524 641" fill="none" xmlns="http://www.w3.org/2000/svg">
<path d="M284.511 299.487C284.511 258.127 318.04 224.597 359.401 224.597V224.597C400.761 224.597 434.291 258.127 434.291 299.487V299.487C434.291 340.848 400.761 374.377 359.401 374.377V374.377C318.04 374.377 284.511 340.848 284.511 299.487V299.487Z" fill="url(#paint0_linear_484_118)"/>
<g filter="url(#filter0_bd_484_118)">
<rect x="5" y="26.4632" width="294.842" height="349.471" rx="37.4166" transform="rotate(-4.95435 5 26.4632)" fill="white" fill-opacity="0.5" shape-rendering="crispEdges"/>
</g>
<path d="M80.5589 74.4936L89.7707 73.6958L90.2408 79.1242L73.9968 80.531L71.4965 51.662L78.5287 51.0529L80.5589 74.4936ZM104.069 78.258C101.821 78.4527 99.7505 78.1486 97.858 77.3458C95.9928 76.5405 94.4622 75.292 93.266 73.6002C92.0973 71.906 91.4096 69.8664 91.203 67.4812C90.9988 65.1234 91.3405 63.0084 92.2279 61.1361C93.113 59.2364 94.4187 57.7284 96.1451 56.6122C97.8714 55.4959 99.8587 54.8404 102.107 54.6457C104.355 54.451 106.425 54.755 108.318 55.5579C110.21 56.3607 111.756 57.6218 112.954 59.341C114.151 61.0328 114.851 63.0576 115.055 65.4154C115.259 67.7731 114.905 69.9031 113.993 71.8051C113.105 73.6774 111.784 75.1728 110.031 76.2915C108.304 77.4078 106.317 78.0633 104.069 78.258ZM103.542 72.1716C104.885 72.0553 105.98 71.4632 106.827 70.3955C107.701 69.3254 108.058 67.872 107.899 66.0351C107.74 64.1982 107.152 62.8267 106.134 61.9204C105.144 61.0118 103.977 60.6157 102.634 60.732C101.263 60.8508 100.168 61.4428 99.3489 62.5081C98.5272 63.546 98.1972 64.9971 98.3586 66.8614C98.5177 68.6983 99.0786 70.0722 100.041 70.9832C101.032 71.8918 102.198 72.288 103.542 72.1716ZM117.384 65.1722C117.18 62.8144 117.439 60.7065 118.162 58.8485C118.912 56.9881 120.014 55.5117 121.466 54.4191C122.918 53.3266 124.59 52.6984 126.482 52.5346C128.099 52.3945 129.54 52.6012 130.803 53.1547C132.094 53.7058 133.114 54.4875 133.865 55.4997L133.584 52.251L140.616 51.6419L142.603 74.5891L135.571 75.1981L135.29 71.9493C134.697 73.0779 133.812 74.0246 132.635 74.7895C131.486 75.5519 130.103 76.0032 128.485 76.1433C126.621 76.3048 124.879 75.9722 123.261 75.1456C121.64 74.2916 120.3 73.0128 119.241 71.3091C118.207 69.5756 117.588 67.53 117.384 65.1722ZM134.577 63.7245C134.425 61.9699 133.812 60.6282 132.737 59.6992C131.69 58.768 130.467 58.3629 129.069 58.484C127.67 58.6051 126.522 59.2155 125.623 60.3154C124.749 61.3855 124.388 62.7979 124.539 64.5525C124.691 66.3071 125.292 67.6638 126.342 68.6225C127.417 69.5514 128.653 69.9553 130.052 69.8342C131.45 69.7131 132.585 69.1038 133.457 68.0063C134.356 66.9064 134.729 65.4792 134.577 63.7245ZM145.295 62.7548C145.091 60.3971 145.35 58.2892 146.073 56.4311C146.824 54.5707 147.925 53.0943 149.377 52.0017C150.829 50.9092 152.501 50.281 154.393 50.1172C155.901 49.9866 157.299 50.1832 158.587 50.7069C159.903 51.2282 160.964 51.9926 161.769 53.0001L160.847 42.349L167.879 41.7399L170.515 72.1717L163.482 72.7808L163.197 69.4908C162.634 70.6445 161.764 71.6037 160.588 72.3685C159.438 73.131 158.055 73.5823 156.437 73.7224C154.546 73.8862 152.791 73.5548 151.172 72.7282C149.552 71.8742 148.212 70.5954 147.153 68.8917C146.119 67.1582 145.499 65.1126 145.295 62.7548ZM162.489 61.3072C162.337 59.5525 161.723 58.2108 160.648 57.2819C159.601 56.3506 158.378 55.9455 156.98 56.0666C155.582 56.1877 154.433 56.7982 153.534 57.898C152.66 58.9681 152.299 60.3805 152.451 62.1351C152.603 63.8897 153.204 65.2464 154.253 66.2051C155.328 67.134 156.565 67.5379 157.963 67.4168C159.361 67.2957 160.496 66.6864 161.368 65.5889C162.267 64.489 162.641 63.0618 162.489 61.3072ZM176.945 46.0924C175.711 46.1992 174.666 45.9307 173.809 45.2867C172.977 44.613 172.515 43.7415 172.422 42.6723C172.327 41.5756 172.633 40.6377 173.339 39.8584C174.07 39.0493 175.052 38.5913 176.286 38.4845C177.492 38.38 178.511 38.6646 179.343 39.3384C180.2 39.9823 180.676 40.8526 180.77 41.9493C180.863 43.0185 180.544 43.9576 179.813 44.7667C179.107 45.546 178.151 45.9879 176.945 46.0924ZM180.647 48.1748L182.634 71.122L175.602 71.7311L173.615 48.7839L180.647 48.1748ZM199.704 46.2757C202.39 46.043 204.605 46.7351 206.347 48.352C208.114 49.9392 209.129 52.2543 209.393 55.2975L210.554 68.7039L203.563 69.3094L202.484 56.8488C202.351 55.3135 201.85 54.1554 200.981 53.3743C200.113 52.5933 199.007 52.2609 197.663 52.3773C196.32 52.4936 195.288 53.0112 194.566 53.9299C193.845 54.8487 193.55 56.0757 193.683 57.611L194.763 70.0716L187.73 70.6806L185.743 47.7335L192.775 47.1244L193.039 50.1676C193.664 49.0915 194.554 48.2133 195.711 47.5331C196.865 46.8254 198.196 46.4063 199.704 46.2757ZM222.143 44.2494C223.761 44.1093 225.201 44.316 226.464 44.8695C227.755 45.4206 228.776 46.2023 229.526 47.2146L229.245 43.9658L236.277 43.3567L238.261 66.2628C238.444 68.3738 238.184 70.316 237.481 72.0894C236.808 73.8879 235.652 75.3691 234.013 76.5331C232.401 77.6947 230.32 78.3859 227.771 78.6067C224.371 78.9012 221.546 78.331 219.295 76.8963C217.046 75.489 215.652 73.4276 215.113 70.7122L222.063 70.1102C222.358 70.9685 222.938 71.6088 223.804 72.0311C224.671 72.4807 225.708 72.6533 226.914 72.5489C228.367 72.423 229.482 71.8983 230.258 70.9748C231.065 70.0764 231.388 68.7087 231.229 66.8718L230.948 63.623C230.355 64.7516 229.485 65.7109 228.338 66.5007C227.189 67.2632 225.805 67.7145 224.188 67.8546C222.296 68.0184 220.541 67.687 218.922 66.8604C217.302 66.0064 215.962 64.7276 214.903 63.0239C213.869 61.2904 213.25 59.2448 213.045 56.887C212.841 54.5293 213.101 52.4214 213.824 50.5633C214.574 48.7029 215.675 47.2265 217.127 46.1339C218.58 45.0414 220.252 44.4132 222.143 44.2494ZM230.239 55.4394C230.087 53.6847 229.473 52.343 228.399 51.4141C227.351 50.4828 226.128 50.0777 224.73 50.1988C223.332 50.3199 222.183 50.9304 221.284 52.0302C220.41 53.1003 220.049 54.5127 220.201 56.2673C220.353 58.0219 220.954 59.3786 222.004 60.3373C223.078 61.2662 224.315 61.6701 225.713 61.549C227.111 61.4279 228.246 60.8186 229.118 59.7211C230.017 58.6212 230.391 57.194 230.239 55.4394Z" fill="#1D114D" fill-opacity="0.75"/>
<rect x="160.462" y="114.916" width="12.0964" height="43.2923" rx="6.04818" fill="white"/>
<rect x="94.6321" y="192.842" width="12.0964" height="43.2923" rx="6.04818" transform="rotate(-90 94.6321 192.842)" fill="white"/>
<rect x="172.558" y="258.799" width="12.0964" height="43.2923" rx="6.04818" transform="rotate(180 172.558 258.799)" fill="#9A9899"/>
<rect x="238.515" y="180.746" width="12.0964" height="43.2923" rx="6.04818" transform="rotate(90 238.515 180.746)" fill="#9A9899"/>
<rect x="197.251" y="121.498" width="12.0964" height="43.2923" rx="6.04818" transform="rotate(30 197.251 121.498)" fill="white"/>
<rect x="101.278" y="156.069" width="12.0964" height="43.2923" rx="6.04818" transform="rotate(-60 101.278 156.069)" fill="white"/>
<rect x="135.786" y="252.153" width="12.0964" height="43.2923" rx="6.04818" transform="rotate(-150 135.786 252.153)" fill="white"/>
<rect x="231.933" y="217.535" width="12.0964" height="43.2923" rx="6.04818" transform="rotate(120 231.933 217.535)" fill="#9A9899"/>
<rect x="225.809" y="145.574" width="12.0964" height="43.2923" rx="6.04818" transform="rotate(60 225.809 145.574)" fill="white"/>
<rect x="125.409" y="127.526" width="12.0964" height="43.2923" rx="6.04818" transform="rotate(-30 125.409 127.526)" fill="white"/>
<rect x="107.251" y="227.991" width="12.0964" height="43.2923" rx="6.04818" transform="rotate(-120 107.251 227.991)" fill="white"/>
<rect x="207.826" y="246.085" width="12.0964" height="43.2923" rx="6.04818" transform="rotate(150 207.826 246.085)" fill="#9A9899"/>
<path d="M199.596 354.918C199.596 322.676 225.733 296.539 257.975 296.539V296.539C290.217 296.539 316.354 322.676 316.354 354.918V354.918C316.354 387.159 290.217 413.296 257.975 413.296V413.296C225.733 413.296 199.596 387.159 199.596 354.918V354.918Z" fill="url(#paint1_linear_484_118)"/>
<g filter="url(#filter1_bd_484_118)">
<rect x="229.08" y="247.005" width="294.842" height="349.471" rx="37.4166" transform="rotate(8.07419 229.08 247.005)" fill="white" fill-opacity="0.5" shape-rendering="crispEdges"/>
</g>
<rect x="238.29" y="406.31" width="232.731" height="35.9199" rx="17.9599" transform="rotate(8.07419 238.29 406.31)" stroke="white" stroke-width="2.24499"/>
<rect x="241.892" y="410.222" width="194.566" height="29.1849" rx="14.5925" transform="rotate(8.07419 241.892 410.222)" fill="white"/>
<path d="M295.273 312.384L304.427 313.682L303.663 319.077L287.519 316.788L291.587 288.097L298.576 289.088L295.273 312.384ZM317.33 321.348C315.096 321.031 313.148 320.268 311.484 319.06C309.849 317.855 308.639 316.294 307.854 314.376C307.097 312.462 306.887 310.32 307.223 307.95C307.555 305.606 308.365 303.623 309.651 301.999C310.941 300.347 312.553 299.172 314.487 298.473C316.42 297.775 318.504 297.584 320.738 297.901C322.972 298.217 324.921 298.98 326.584 300.189C328.247 301.397 329.469 302.974 330.249 304.919C331.033 306.837 331.259 308.967 330.927 311.311C330.595 313.654 329.77 315.649 328.452 317.297C327.166 318.921 325.542 320.08 323.582 320.775C321.648 321.474 319.564 321.665 317.33 321.348ZM318.188 315.299C319.523 315.489 320.723 315.158 321.789 314.309C322.881 313.463 323.557 312.128 323.816 310.302C324.075 308.477 323.811 307.008 323.023 305.896C322.263 304.787 321.216 304.139 319.881 303.949C318.518 303.756 317.318 304.086 316.28 304.94C315.246 305.766 314.597 307.105 314.334 308.958C314.075 310.783 314.312 312.248 315.045 313.353C315.805 314.461 316.853 315.11 318.188 315.299ZM333.251 311.598C333.583 309.255 334.311 307.26 335.434 305.613C336.584 303.969 337.99 302.779 339.651 302.041C341.312 301.304 343.082 301.069 344.962 301.335C346.57 301.563 347.926 302.089 349.033 302.913C350.166 303.741 350.984 304.732 351.488 305.888L351.945 302.659L358.934 303.65L355.7 326.455L348.712 325.464L349.17 322.235C348.338 323.201 347.262 323.924 345.944 324.404C344.652 324.888 343.203 325.016 341.595 324.788C339.742 324.526 338.121 323.809 336.73 322.639C335.343 321.442 334.326 319.894 333.678 317.996C333.061 316.074 332.919 313.942 333.251 311.598ZM350.329 314.061C350.576 312.318 350.28 310.872 349.443 309.725C348.632 308.582 347.532 307.912 346.142 307.715C344.753 307.517 343.496 307.853 342.372 308.723C341.279 309.568 340.61 310.863 340.362 312.607C340.115 314.35 340.395 315.808 341.202 316.978C342.04 318.125 343.153 318.797 344.543 318.994C345.932 319.191 347.175 318.853 348.272 317.981C349.396 317.112 350.081 315.805 350.329 314.061ZM360.989 315.531C361.322 313.188 362.049 311.193 363.172 309.545C364.322 307.902 365.728 306.712 367.389 305.974C369.05 305.237 370.821 305.002 372.701 305.268C374.199 305.481 375.517 305.987 376.654 306.788C377.819 307.592 378.68 308.576 379.237 309.739L380.738 299.154L387.727 300.145L383.439 330.388L376.45 329.397L376.914 326.127C376.105 327.124 375.042 327.863 373.723 328.343C372.431 328.827 370.982 328.955 369.374 328.727C367.494 328.461 365.859 327.742 364.469 326.572C363.082 325.375 362.064 323.827 361.416 321.929C360.8 320.007 360.657 317.874 360.989 315.531ZM378.067 317.994C378.314 316.251 378.019 314.805 377.181 313.658C376.37 312.515 375.27 311.844 373.881 311.647C372.491 311.45 371.234 311.786 370.111 312.655C369.018 313.501 368.348 314.796 368.101 316.54C367.853 318.283 368.133 319.74 368.94 320.911C369.778 322.058 370.892 322.73 372.281 322.927C373.671 323.124 374.914 322.786 376.01 321.914C377.134 321.044 377.82 319.738 378.067 317.994ZM395.579 306.428C394.353 306.254 393.395 305.757 392.705 304.936C392.047 304.092 391.793 303.139 391.944 302.077C392.098 300.987 392.607 300.142 393.47 299.541C394.365 298.918 395.425 298.693 396.651 298.867C397.85 299.037 398.779 299.544 399.437 300.387C400.127 301.208 400.395 302.163 400.24 303.253C400.089 304.315 399.567 305.159 398.672 305.782C397.809 306.382 396.778 306.598 395.579 306.428ZM398.717 309.291L395.483 332.096L388.495 331.105L391.728 308.3L398.717 309.291ZM417.712 311.734C420.382 312.112 422.383 313.285 423.716 315.253C425.081 317.198 425.548 319.682 425.119 322.706L423.23 336.03L416.283 335.045L418.038 322.661C418.255 321.135 418.028 319.894 417.357 318.938C416.687 317.981 415.684 317.408 414.349 317.219C413.014 317.029 411.892 317.301 410.982 318.034C410.072 318.766 409.509 319.895 409.292 321.421L407.537 333.804L400.548 332.814L403.781 310.009L410.77 310.999L410.341 314.024C411.193 313.116 412.258 312.461 413.538 312.059C414.822 311.63 416.213 311.521 417.712 311.734ZM440.031 314.815C441.638 315.043 442.995 315.569 444.101 316.392C445.235 317.22 446.053 318.212 446.556 319.367L447.014 316.138L454.003 317.129L450.775 339.893C450.478 341.991 449.787 343.825 448.703 345.395C447.642 346.995 446.182 348.178 444.322 348.943C442.49 349.711 440.307 349.916 437.773 349.557C434.395 349.078 431.77 347.886 429.9 345.981C428.026 344.103 427.133 341.78 427.219 339.013L434.126 339.993C434.221 340.895 434.642 341.65 435.39 342.256C436.134 342.89 437.105 343.292 438.304 343.462C439.748 343.666 440.952 343.406 441.916 342.681C442.904 341.988 443.528 340.728 443.786 338.903L444.244 335.674C443.412 336.64 442.349 337.378 441.053 337.89C439.762 338.374 438.312 338.502 436.705 338.274C434.825 338.007 433.189 337.289 431.799 336.119C430.412 334.922 429.395 333.374 428.747 331.475C428.13 329.554 427.988 327.421 428.32 325.078C428.652 322.735 429.38 320.739 430.503 319.092C431.653 317.449 433.058 316.258 434.719 315.521C436.38 314.784 438.151 314.548 440.031 314.815ZM445.397 327.541C445.645 325.797 445.349 324.352 444.511 323.205C443.701 322.061 442.6 321.391 441.211 321.194C439.821 320.997 438.565 321.333 437.441 322.202C436.348 323.048 435.678 324.342 435.431 326.086C435.184 327.83 435.464 329.287 436.27 330.458C437.108 331.605 438.222 332.277 439.612 332.474C441.001 332.671 442.244 332.333 443.341 331.46C444.465 330.591 445.15 329.285 445.397 327.541Z" fill="#1D114D" fill-opacity="0.75"/>
<defs>
<filter id="filter0_bd_484_118" x="-27.2917" y="-31.2917" width="388.505" height="438.212" filterUnits="userSpaceOnUse" color-interpolation-filters="sRGB">
<feFlood flood-opacity="0" result="BackgroundImageFix"/>
<feGaussianBlur in="BackgroundImage" stdDeviation="17.6905"/>
<feComposite in2="SourceAlpha" operator="in" result="effect1_backgroundBlur_484_118"/>
<feColorMatrix in="SourceAlpha" type="matrix" values="0 0 0 0 0 0 0 0 0 0 0 0 0 0 0 0 0 0 127 0" result="hardAlpha"/>
<feOffset dy="3.74166"/>
<feGaussianBlur stdDeviation="3.74166"/>
<feComposite in2="hardAlpha" operator="out"/>
<feColorMatrix type="matrix" values="0 0 0 0 0 0 0 0 0 0 0 0 0 0 0 0 0 0 0.25 0"/>
<feBlend mode="normal" in2="effect1_backgroundBlur_484_118" result="effect2_dropShadow_484_118"/>
<feBlend mode="normal" in="SourceGraphic" in2="effect2_dropShadow_484_118" result="shape"/>
</filter>
<filter id="filter1_bd_484_118" x="149.494" y="216.504" width="402.007" height="448.421" filterUnits="userSpaceOnUse" color-interpolation-filters="sRGB">
<feFlood flood-opacity="0" result="BackgroundImageFix"/>
<feGaussianBlur in="BackgroundImage" stdDeviation="17.6905"/>
<feComposite in2="SourceAlpha" operator="in" result="effect1_backgroundBlur_484_118"/>
<feColorMatrix in="SourceAlpha" type="matrix" values="0 0 0 0 0 0 0 0 0 0 0 0 0 0 0 0 0 0 127 0" result="hardAlpha"/>
<feOffset dy="3.74166"/>
<feGaussianBlur stdDeviation="3.74166"/>
<feComposite in2="hardAlpha" operator="out"/>
<feColorMatrix type="matrix" values="0 0 0 0 0 0 0 0 0 0 0 0 0 0 0 0 0 0 0.25 0"/>
<feBlend mode="normal" in2="effect1_backgroundBlur_484_118" result="effect2_dropShadow_484_118"/>
<feBlend mode="normal" in="SourceGraphic" in2="effect2_dropShadow_484_118" result="shape"/>
</filter>
<linearGradient id="paint0_linear_484_118" x1="359.401" y1="224.597" x2="359.401" y2="510.362" gradientUnits="userSpaceOnUse">
<stop offset="9.41126e-09" stop-color="#E8E2FF"/>
<stop offset="1" stop-color="#7265A6"/>
</linearGradient>
<linearGradient id="paint1_linear_484_118" x1="257.975" y1="296.539" x2="257.975" y2="519.3" gradientUnits="userSpaceOnUse">
<stop offset="9.41126e-09" stop-color="#E8E2FF"/>
<stop offset="1" stop-color="#7265A6"/>
</linearGradient>
</defs>
</svg>
