<svg width="444" height="544" viewBox="0 0 444 544" fill="none" xmlns="http://www.w3.org/2000/svg">
<path d="M241 254.091C241 219.02 269.43 190.591 304.5 190.591V190.591C339.57 190.591 368 219.02 368 254.091V254.091C368 289.161 339.57 317.591 304.5 317.591V317.591C269.43 317.591 241 289.161 241 254.091V254.091Z" fill="url(#paint0_linear_484_118)"/>
<g filter="url(#filter0_bd_484_118)">
<rect x="4" y="22.5905" width="250" height="296.32" rx="31.7259" transform="rotate(-4.95435 4 22.5905)" fill="white" fill-opacity="0.5" shape-rendering="crispEdges"/>
</g>
<path d="M68.0557 63.1834L75.8664 62.5069L76.2651 67.1096L62.4916 68.3026L60.3716 43.8242L66.3343 43.3078L68.0557 63.1834ZM87.9901 66.3752C86.0839 66.5403 84.3285 66.2825 82.7237 65.6017C81.1423 64.919 79.8444 63.8603 78.8302 62.4258C77.8392 60.9893 77.2561 59.2599 77.081 57.2374C76.9078 55.2382 77.1975 53.4449 77.95 51.8574C78.7005 50.2466 79.8076 48.968 81.2714 48.0215C82.7352 47.075 84.4202 46.5192 86.3264 46.3541C88.2326 46.189 89.988 46.4468 91.5927 47.1276C93.1975 47.8083 94.508 48.8775 95.5242 50.3353C96.5384 51.7698 97.1321 53.4866 97.3053 55.4858C97.4784 57.485 97.1781 59.291 96.4044 60.9038C95.6519 62.4913 94.5321 63.7593 93.0451 64.7078C91.5813 65.6543 89.8963 66.2101 87.9901 66.3752ZM87.5432 61.2145C88.6822 61.1159 89.6107 60.6139 90.3286 59.7086C91.0697 58.8012 91.3729 57.5688 91.238 56.0113C91.1031 54.4538 90.6042 53.2908 89.7413 52.5224C88.9017 51.752 87.9124 51.4161 86.7733 51.5148C85.611 51.6154 84.6825 52.1174 83.9879 53.0207C83.2912 53.9008 83.0113 55.1312 83.1483 56.7119C83.2831 58.2694 83.7588 59.4344 84.5751 60.2069C85.4147 60.9773 86.4041 61.3132 87.5432 61.2145ZM99.28 55.2797C99.1068 53.2805 99.3268 51.4932 99.9398 49.9177C100.576 48.3403 101.51 47.0884 102.741 46.162C103.972 45.2356 105.39 44.703 106.994 44.5641C108.366 44.4453 109.587 44.6205 110.658 45.0899C111.753 45.5572 112.618 46.22 113.254 47.0783L113.016 44.3236L118.979 43.8071L120.664 63.2643L114.701 63.7807L114.462 61.026C113.96 61.983 113.21 62.7857 112.212 63.4342C111.237 64.0807 110.064 64.4634 108.693 64.5822C107.112 64.7191 105.636 64.4371 104.263 63.7362C102.889 63.0121 101.753 61.9277 100.855 60.4832C99.9781 59.0133 99.4531 57.2788 99.28 55.2797ZM113.858 54.0522C113.73 52.5644 113.209 51.4267 112.298 50.6391C111.41 49.8494 110.373 49.5059 109.188 49.6086C108.002 49.7113 107.028 50.2289 106.266 51.1615C105.525 52.0689 105.218 53.2664 105.347 54.7542C105.476 56.2419 105.986 57.3923 106.876 58.2052C107.787 58.9928 108.836 59.3353 110.021 59.2326C111.207 59.1299 112.169 58.6133 112.908 57.6827C113.671 56.7501 113.987 55.5399 113.858 54.0522ZM122.946 53.2299C122.773 51.2307 122.993 49.4434 123.606 47.868C124.242 46.2906 125.176 45.0386 126.407 44.1123C127.639 43.1859 129.056 42.6533 130.66 42.5143C131.939 42.4036 133.124 42.5703 134.217 43.0143C135.332 43.4564 136.232 44.1045 136.915 44.9588L136.133 35.9276L142.095 35.4112L144.33 61.2146L138.367 61.731L138.126 58.9415C137.648 59.9196 136.911 60.733 135.913 61.3815C134.938 62.028 133.765 62.4106 132.394 62.5294C130.79 62.6683 129.302 62.3874 127.93 61.6865C126.555 60.9624 125.419 59.878 124.521 58.4334C123.644 56.9636 123.119 55.2291 122.946 53.2299ZM137.525 52.0024C137.396 50.5147 136.876 49.377 135.964 48.5893C135.076 47.7997 134.039 47.4562 132.854 47.5589C131.668 47.6616 130.694 48.1792 129.932 49.1118C129.191 50.0191 128.885 51.2167 129.014 52.7044C129.142 54.1922 129.652 55.3425 130.542 56.1554C131.453 56.9431 132.502 57.2855 133.687 57.1829C134.873 57.0802 135.835 56.5635 136.574 55.633C137.337 54.7004 137.654 53.4902 137.525 52.0024ZM149.782 39.1017C148.736 39.1923 147.85 38.9646 147.123 38.4185C146.418 37.8473 146.026 37.1083 145.948 36.2017C145.867 35.2719 146.126 34.4766 146.725 33.8158C147.344 33.1297 148.177 32.7414 149.223 32.6508C150.246 32.5622 151.11 32.8036 151.816 33.3748C152.542 33.9209 152.946 34.6588 153.026 35.5887C153.105 36.4953 152.834 37.2916 152.214 37.9776C151.616 38.6384 150.805 39.0131 149.782 39.1017ZM152.921 40.8674L154.606 60.3246L148.644 60.841L146.959 41.3838L152.921 40.8674ZM169.08 39.2571C171.358 39.0598 173.236 39.6467 174.713 41.0176C176.211 42.3634 177.072 44.3264 177.296 46.9067L178.28 58.2742L172.352 58.7876L171.437 48.2222C171.324 46.9204 170.9 45.9383 170.163 45.2761C169.427 44.6138 168.489 44.332 167.35 44.4307C166.211 44.5294 165.335 44.9682 164.724 45.7472C164.112 46.5262 163.862 47.5666 163.975 48.8684L164.89 59.4339L158.927 59.9503L157.242 40.4931L163.205 39.9767L163.428 42.5571C163.958 41.6446 164.714 40.9 165.694 40.3232C166.673 39.7232 167.801 39.3679 169.08 39.2571ZM188.107 37.539C189.478 37.4202 190.699 37.5954 191.771 38.0648C192.865 38.5321 193.73 39.1949 194.367 40.0532L194.128 37.2985L200.091 36.7821L201.773 56.2043C201.928 57.9943 201.708 59.6411 201.112 61.1448C200.541 62.6697 199.561 63.9257 198.171 64.9126C196.804 65.8976 195.04 66.4837 192.878 66.6709C189.995 66.9206 187.6 66.4371 185.691 65.2206C183.784 64.0274 182.602 62.2795 182.145 59.977L188.038 59.4666C188.289 60.1944 188.781 60.7373 189.514 61.0953C190.25 61.4766 191.129 61.623 192.152 61.5344C193.384 61.4277 194.329 60.9828 194.987 60.1998C195.671 59.4379 195.945 58.2783 195.81 56.7208L195.572 53.9661C195.069 54.923 194.332 55.7364 193.359 56.4061C192.385 57.0526 191.212 57.4353 189.84 57.554C188.236 57.693 186.748 57.412 185.376 56.7111C184.001 55.987 182.865 54.9026 181.967 53.4581C181.09 51.9883 180.566 50.2537 180.392 48.2546C180.219 46.2554 180.439 44.4681 181.052 42.8926C181.688 41.3152 182.622 40.0633 183.854 39.1369C185.085 38.2105 186.503 37.6779 188.107 37.539ZM194.971 47.0271C194.842 45.5393 194.322 44.4016 193.41 43.614C192.522 42.8243 191.486 42.4808 190.3 42.5835C189.114 42.6862 188.14 43.2038 187.378 44.1364C186.637 45.0438 186.331 46.2413 186.46 47.7291C186.588 49.2168 187.098 50.3672 187.988 51.1801C188.899 51.9677 189.948 52.3102 191.133 52.2075C192.319 52.1048 193.281 51.5882 194.021 50.6576C194.783 49.725 195.1 48.5148 194.971 47.0271Z" fill="#1D114D" fill-opacity="0.75"/>
<rect x="135.818" y="97.5905" width="10.2566" height="36.708" rx="5.12832" fill="white"/>
<rect x="80" y="163.665" width="10.2566" height="36.708" rx="5.12832" transform="rotate(-90 80 163.665)" fill="white"/>
<rect x="146.074" y="219.591" width="10.2566" height="36.708" rx="5.12832" transform="rotate(180 146.074 219.591)" fill="#9A9899"/>
<rect x="202" y="153.408" width="10.2566" height="36.708" rx="5.12832" transform="rotate(90 202 153.408)" fill="#9A9899"/>
<rect x="167.012" y="103.172" width="10.2566" height="36.708" rx="5.12832" transform="rotate(30 167.012 103.172)" fill="white"/>
<rect x="85.6353" y="132.485" width="10.2566" height="36.708" rx="5.12832" transform="rotate(-60 85.6353 132.485)" fill="white"/>
<rect x="114.895" y="213.955" width="10.2566" height="36.708" rx="5.12832" transform="rotate(-150 114.895 213.955)" fill="white"/>
<rect x="196.419" y="184.603" width="10.2566" height="36.708" rx="5.12832" transform="rotate(120 196.419 184.603)" fill="#9A9899"/>
<rect x="191.227" y="123.585" width="10.2566" height="36.708" rx="5.12832" transform="rotate(60 191.227 123.585)" fill="white"/>
<rect x="106.096" y="108.283" width="10.2566" height="36.708" rx="5.12832" transform="rotate(-30 106.096 108.283)" fill="white"/>
<rect x="90.6998" y="193.468" width="10.2566" height="36.708" rx="5.12832" transform="rotate(-120 90.6998 193.468)" fill="white"/>
<rect x="175.978" y="208.81" width="10.2566" height="36.708" rx="5.12832" transform="rotate(150 175.978 208.81)" fill="#9A9899"/>
<path d="M169 301.091C169 273.752 191.162 251.591 218.5 251.591V251.591C245.838 251.591 268 273.752 268 301.091V301.091C268 328.429 245.838 350.591 218.5 350.591V350.591C191.162 350.591 169 328.429 169 301.091V301.091Z" fill="url(#paint1_linear_484_118)"/>
<g filter="url(#filter1_bd_484_118)">
<rect x="194" y="209.591" width="250" height="296.32" rx="31.7259" transform="rotate(8.07419 194 209.591)" fill="white" fill-opacity="0.5" shape-rendering="crispEdges"/>
</g>
<rect x="201.809" y="344.667" width="197.335" height="30.4569" rx="15.2284" transform="rotate(8.07419 201.809 344.667)" stroke="white" stroke-width="1.90355"/>
<rect x="204.863" y="347.984" width="164.975" height="24.7462" rx="12.3731" transform="rotate(8.07419 204.863 347.984)" fill="white"/>
<path d="M250.144 264.894L257.906 265.994L257.258 270.569L243.57 268.628L247.019 244.301L252.945 245.141L250.144 264.894ZM268.847 272.495C266.952 272.226 265.3 271.579 263.89 270.554C262.503 269.533 261.477 268.209 260.812 266.583C260.17 264.96 259.992 263.144 260.277 261.134C260.558 259.147 261.245 257.465 262.335 256.088C263.43 254.688 264.796 253.691 266.436 253.099C268.075 252.507 269.842 252.345 271.736 252.613C273.631 252.882 275.283 253.529 276.693 254.553C278.103 255.578 279.139 256.915 279.801 258.564C280.466 260.19 280.657 261.997 280.376 263.984C280.094 265.971 279.395 267.662 278.277 269.059C277.187 270.437 275.81 271.42 274.147 272.009C272.508 272.601 270.741 272.763 268.847 272.495ZM269.574 267.366C270.706 267.526 271.724 267.246 272.627 266.526C273.554 265.809 274.127 264.677 274.346 263.129C274.565 261.581 274.341 260.335 273.674 259.392C273.029 258.453 272.141 257.903 271.009 257.742C269.854 257.578 268.836 257.858 267.956 258.582C267.079 259.282 266.529 260.418 266.306 261.989C266.087 263.537 266.288 264.779 266.909 265.715C267.554 266.655 268.442 267.205 269.574 267.366ZM282.346 264.228C282.628 262.241 283.245 260.549 284.197 259.152C285.172 257.759 286.364 256.749 287.772 256.124C289.181 255.499 290.682 255.3 292.276 255.526C293.639 255.719 294.79 256.165 295.727 256.863C296.688 257.565 297.382 258.406 297.809 259.386L298.197 256.648L304.123 257.488L301.381 276.825L295.455 275.985L295.844 273.247C295.138 274.066 294.227 274.679 293.108 275.086C292.013 275.496 290.784 275.605 289.421 275.412C287.85 275.189 286.475 274.582 285.296 273.59C284.12 272.574 283.258 271.262 282.708 269.652C282.185 268.023 282.064 266.215 282.346 264.228ZM296.826 266.316C297.036 264.838 296.786 263.612 296.075 262.639C295.388 261.67 294.455 261.102 293.277 260.935C292.098 260.768 291.033 261.052 290.08 261.789C289.154 262.506 288.585 263.604 288.376 265.083C288.166 266.561 288.403 267.797 289.088 268.789C289.798 269.762 290.742 270.332 291.921 270.499C293.099 270.666 294.153 270.379 295.083 269.639C296.035 268.902 296.617 267.795 296.826 266.316ZM305.866 267.563C306.147 265.576 306.764 263.884 307.717 262.487C308.692 261.094 309.884 260.084 311.292 259.459C312.7 258.834 314.202 258.634 315.796 258.86C317.066 259.041 318.184 259.47 319.148 260.149C320.135 260.831 320.866 261.665 321.338 262.651L322.611 253.676L328.537 254.516L324.901 280.159L318.975 279.319L319.368 276.547C318.683 277.392 317.781 278.019 316.663 278.426C315.568 278.836 314.338 278.945 312.975 278.751C311.381 278.525 309.995 277.916 308.816 276.924C307.64 275.909 306.777 274.597 306.228 272.987C305.705 271.358 305.584 269.549 305.866 267.563ZM320.346 269.651C320.556 268.172 320.305 266.947 319.595 265.974C318.907 265.005 317.975 264.436 316.796 264.269C315.618 264.102 314.553 264.387 313.6 265.124C312.673 265.841 312.105 266.939 311.895 268.417C311.686 269.896 311.923 271.132 312.607 272.124C313.318 273.097 314.262 273.667 315.44 273.834C316.618 274.001 317.672 273.714 318.602 272.974C319.555 272.237 320.136 271.13 320.346 269.651ZM335.195 259.843C334.155 259.696 333.343 259.274 332.758 258.579C332.2 257.863 331.984 257.055 332.112 256.154C332.243 255.23 332.675 254.513 333.407 254.005C334.165 253.476 335.064 253.285 336.104 253.432C337.12 253.577 337.908 254.006 338.466 254.722C339.051 255.418 339.278 256.227 339.147 257.152C339.019 258.053 338.576 258.767 337.818 259.296C337.085 259.805 336.211 259.988 335.195 259.843ZM337.855 262.271L335.114 281.608L329.188 280.767L331.93 261.431L337.855 262.271ZM353.961 264.342C356.225 264.663 357.922 265.658 359.053 267.327C360.209 268.975 360.606 271.082 360.242 273.646L358.641 284.943L352.749 284.108L354.238 273.608C354.422 272.314 354.229 271.262 353.661 270.451C353.092 269.64 352.242 269.154 351.11 268.993C349.978 268.833 349.026 269.063 348.255 269.684C347.483 270.305 347.006 271.263 346.822 272.557L345.334 283.057L339.408 282.216L342.15 262.88L348.075 263.72L347.712 266.284C348.434 265.515 349.337 264.959 350.422 264.618C351.511 264.254 352.691 264.162 353.961 264.342ZM372.886 266.955C374.249 267.148 375.399 267.594 376.337 268.293C377.298 268.995 377.992 269.835 378.419 270.815L378.807 268.077L384.733 268.918L381.996 288.219C381.744 289.998 381.158 291.553 380.239 292.884C379.339 294.241 378.101 295.244 376.525 295.892C374.971 296.544 373.12 296.718 370.972 296.413C368.107 296.007 365.882 294.996 364.296 293.381C362.707 291.789 361.949 289.819 362.023 287.473L367.879 288.304C367.959 289.069 368.316 289.709 368.95 290.223C369.581 290.76 370.405 291.101 371.421 291.245C372.646 291.419 373.667 291.198 374.485 290.583C375.322 289.995 375.851 288.927 376.07 287.379L376.458 284.642C375.753 285.461 374.851 286.087 373.753 286.52C372.658 286.931 371.429 287.039 370.066 286.846C368.472 286.62 367.085 286.011 365.906 285.019C364.73 284.004 363.867 282.691 363.318 281.082C362.795 279.452 362.674 277.644 362.956 275.657C363.238 273.67 363.855 271.979 364.807 270.582C365.782 269.188 366.974 268.179 368.382 267.554C369.791 266.929 371.292 266.729 372.886 266.955ZM377.436 277.746C377.646 276.267 377.395 275.041 376.685 274.069C375.997 273.099 375.065 272.531 373.886 272.364C372.708 272.197 371.643 272.482 370.69 273.219C369.763 273.936 369.195 275.034 368.986 276.512C368.776 277.991 369.013 279.226 369.697 280.219C370.408 281.191 371.352 281.761 372.53 281.928C373.709 282.095 374.763 281.809 375.692 281.069C376.645 280.332 377.226 279.224 377.436 277.746Z" fill="#1D114D" fill-opacity="0.75"/>
<defs>
<filter id="filter0_bd_484_118" x="-23.3805" y="-26.3805" width="329.418" height="371.564" filterUnits="userSpaceOnUse" color-interpolation-filters="sRGB">
<feFlood flood-opacity="0" result="BackgroundImageFix"/>
<feGaussianBlur in="BackgroundImage" stdDeviation="15"/>
<feComposite in2="SourceAlpha" operator="in" result="effect1_backgroundBlur_484_118"/>
<feColorMatrix in="SourceAlpha" type="matrix" values="0 0 0 0 0 0 0 0 0 0 0 0 0 0 0 0 0 0 127 0" result="hardAlpha"/>
<feOffset dy="3.17259"/>
<feGaussianBlur stdDeviation="3.17259"/>
<feComposite in2="hardAlpha" operator="out"/>
<feColorMatrix type="matrix" values="0 0 0 0 0 0 0 0 0 0 0 0 0 0 0 0 0 0 0.25 0"/>
<feBlend mode="normal" in2="effect1_backgroundBlur_484_118" result="effect2_dropShadow_484_118"/>
<feBlend mode="normal" in="SourceGraphic" in2="effect2_dropShadow_484_118" result="shape"/>
</filter>
<filter id="filter1_bd_484_118" x="126.518" y="183.728" width="340.866" height="380.221" filterUnits="userSpaceOnUse" color-interpolation-filters="sRGB">
<feFlood flood-opacity="0" result="BackgroundImageFix"/>
<feGaussianBlur in="BackgroundImage" stdDeviation="15"/>
<feComposite in2="SourceAlpha" operator="in" result="effect1_backgroundBlur_484_118"/>
<feColorMatrix in="SourceAlpha" type="matrix" values="0 0 0 0 0 0 0 0 0 0 0 0 0 0 0 0 0 0 127 0" result="hardAlpha"/>
<feOffset dy="3.17259"/>
<feGaussianBlur stdDeviation="3.17259"/>
<feComposite in2="hardAlpha" operator="out"/>
<feColorMatrix type="matrix" values="0 0 0 0 0 0 0 0 0 0 0 0 0 0 0 0 0 0 0.25 0"/>
<feBlend mode="normal" in2="effect1_backgroundBlur_484_118" result="effect2_dropShadow_484_118"/>
<feBlend mode="normal" in="SourceGraphic" in2="effect2_dropShadow_484_118" result="shape"/>
</filter>
<linearGradient id="paint0_linear_484_118" x1="304.5" y1="190.591" x2="304.5" y2="432.893" gradientUnits="userSpaceOnUse">
<stop offset="9.41126e-09" stop-color="#E8E2FF"/>
<stop offset="1" stop-color="#7265A6"/>
</linearGradient>
<linearGradient id="paint1_linear_484_118" x1="218.5" y1="251.591" x2="218.5" y2="440.472" gradientUnits="userSpaceOnUse">
<stop offset="9.41126e-09" stop-color="#E8E2FF"/>
<stop offset="1" stop-color="#7265A6"/>
</linearGradient>
</defs>
</svg>
