<svg width="254" height="78" viewBox="0 0 254 78" fill="none" xmlns="http://www.w3.org/2000/svg">
<g filter="url(#filter0_bd_484_147)">
<rect x="4" width="246" height="70" rx="25" fill="#1D114C" fill-opacity="0.75" shape-rendering="crispEdges"/>
</g>
<path d="M26.8899 35.25C26.8899 33.5333 27.2732 32 28.0399 30.65C28.8232 29.2833 29.8815 28.225 31.2149 27.475C32.5649 26.7083 34.0732 26.325 35.7399 26.325C37.6899 26.325 39.3982 26.825 40.8649 27.825C42.3315 28.825 43.3565 30.2083 43.9399 31.975H39.9149C39.5149 31.1417 38.9482 30.5167 38.2149 30.1C37.4982 29.6833 36.6649 29.475 35.7149 29.475C34.6982 29.475 33.7899 29.7167 32.9899 30.2C32.2065 30.6667 31.5899 31.3333 31.1399 32.2C30.7065 33.0667 30.4899 34.0833 30.4899 35.25C30.4899 36.4 30.7065 37.4167 31.1399 38.3C31.5899 39.1667 32.2065 39.8417 32.9899 40.325C33.7899 40.7917 34.6982 41.025 35.7149 41.025C36.6649 41.025 37.4982 40.8167 38.2149 40.4C38.9482 39.9667 39.5149 39.3333 39.9149 38.5H43.9399C43.3565 40.2833 42.3315 41.675 40.8649 42.675C39.4149 43.6583 37.7065 44.15 35.7399 44.15C34.0732 44.15 32.5649 43.775 31.2149 43.025C29.8815 42.2583 28.8232 41.2 28.0399 39.85C27.2732 38.5 26.8899 36.9667 26.8899 35.25ZM53.4317 44.225C52.0984 44.225 50.8984 43.9333 49.8317 43.35C48.7651 42.75 47.9234 41.9083 47.3067 40.825C46.7067 39.7417 46.4067 38.4917 46.4067 37.075C46.4067 35.6583 46.7151 34.4083 47.3317 33.325C47.9651 32.2417 48.8234 31.4083 49.9067 30.825C50.9901 30.225 52.1984 29.925 53.5317 29.925C54.8651 29.925 56.0734 30.225 57.1567 30.825C58.2401 31.4083 59.0901 32.2417 59.7067 33.325C60.3401 34.4083 60.6567 35.6583 60.6567 37.075C60.6567 38.4917 60.3317 39.7417 59.6817 40.825C59.0484 41.9083 58.1817 42.75 57.0817 43.35C55.9984 43.9333 54.7817 44.225 53.4317 44.225ZM53.4317 41.175C54.0651 41.175 54.6567 41.025 55.2067 40.725C55.7734 40.4083 56.2234 39.9417 56.5567 39.325C56.8901 38.7083 57.0567 37.9583 57.0567 37.075C57.0567 35.7583 56.7067 34.75 56.0067 34.05C55.3234 33.3333 54.4817 32.975 53.4817 32.975C52.4817 32.975 51.6401 33.3333 50.9567 34.05C50.2901 34.75 49.9567 35.7583 49.9567 37.075C49.9567 38.3917 50.2817 39.4083 50.9317 40.125C51.5984 40.825 52.4317 41.175 53.4317 41.175ZM71.2516 29.95C72.9016 29.95 74.2349 30.475 75.2516 31.525C76.2682 32.5583 76.7766 34.0083 76.7766 35.875V44H73.2766V36.35C73.2766 35.25 73.0016 34.4083 72.4516 33.825C71.9016 33.225 71.1516 32.925 70.2016 32.925C69.2349 32.925 68.4682 33.225 67.9016 33.825C67.3516 34.4083 67.0766 35.25 67.0766 36.35V44H63.5766V30.15H67.0766V31.875C67.5432 31.275 68.1349 30.8083 68.8516 30.475C69.5849 30.125 70.3849 29.95 71.2516 29.95ZM84.5323 33.025V39.725C84.5323 40.1917 84.6406 40.5333 84.8573 40.75C85.0906 40.95 85.474 41.05 86.0073 41.05H87.6323V44H85.4323C82.4823 44 81.0073 42.5667 81.0073 39.7V33.025H79.3573V30.15H81.0073V26.725H84.5323V30.15H87.6323V33.025H84.5323ZM94.0021 32.3C94.4521 31.5667 95.0355 30.9917 95.7521 30.575C96.4855 30.1583 97.3188 29.95 98.2521 29.95V33.625H97.3271C96.2271 33.625 95.3938 33.8833 94.8271 34.4C94.2771 34.9167 94.0021 35.8167 94.0021 37.1V44H90.5021V30.15H94.0021V32.3ZM102.737 28.5C102.12 28.5 101.604 28.3083 101.187 27.925C100.787 27.525 100.587 27.0333 100.587 26.45C100.587 25.8667 100.787 25.3833 101.187 25C101.604 24.6 102.12 24.4 102.737 24.4C103.354 24.4 103.862 24.6 104.262 25C104.679 25.3833 104.887 25.8667 104.887 26.45C104.887 27.0333 104.679 27.525 104.262 27.925C103.862 28.3083 103.354 28.5 102.737 28.5ZM104.462 30.15V44H100.962V30.15H104.462ZM111.772 32.175C112.222 31.5083 112.839 30.9667 113.622 30.55C114.422 30.1333 115.331 29.925 116.347 29.925C117.531 29.925 118.597 30.2167 119.547 30.8C120.514 31.3833 121.272 32.2167 121.822 33.3C122.389 34.3667 122.672 35.6083 122.672 37.025C122.672 38.4417 122.389 39.7 121.822 40.8C121.272 41.8833 120.514 42.725 119.547 43.325C118.597 43.925 117.531 44.225 116.347 44.225C115.314 44.225 114.406 44.025 113.622 43.625C112.856 43.2083 112.239 42.675 111.772 42.025V44H108.272V25.5H111.772V32.175ZM119.097 37.025C119.097 36.1917 118.922 35.475 118.572 34.875C118.239 34.2583 117.789 33.7917 117.222 33.475C116.672 33.1583 116.072 33 115.422 33C114.789 33 114.189 33.1667 113.622 33.5C113.072 33.8167 112.622 34.2833 112.272 34.9C111.939 35.5167 111.772 36.2417 111.772 37.075C111.772 37.9083 111.939 38.6333 112.272 39.25C112.622 39.8667 113.072 40.3417 113.622 40.675C114.189 40.9917 114.789 41.15 115.422 41.15C116.072 41.15 116.672 40.9833 117.222 40.65C117.789 40.3167 118.239 39.8417 118.572 39.225C118.922 38.6083 119.097 37.875 119.097 37.025ZM138.643 30.15V44H135.118V42.25C134.668 42.85 134.077 43.325 133.343 43.675C132.627 44.0083 131.843 44.175 130.993 44.175C129.91 44.175 128.952 43.95 128.118 43.5C127.285 43.0333 126.627 42.3583 126.143 41.475C125.677 40.575 125.443 39.5083 125.443 38.275V30.15H128.943V37.775C128.943 38.875 129.218 39.725 129.768 40.325C130.318 40.9083 131.068 41.2 132.018 41.2C132.985 41.2 133.743 40.9083 134.293 40.325C134.843 39.725 135.118 38.875 135.118 37.775V30.15H138.643ZM146.524 33.025V39.725C146.524 40.1917 146.632 40.5333 146.849 40.75C147.082 40.95 147.466 41.05 147.999 41.05H149.624V44H147.424C144.474 44 142.999 42.5667 142.999 39.7V33.025H141.349V30.15H142.999V26.725H146.524V30.15H149.624V33.025H146.524ZM165.369 36.775C165.369 37.275 165.335 37.725 165.269 38.125H155.144C155.227 39.125 155.577 39.9083 156.194 40.475C156.81 41.0417 157.569 41.325 158.469 41.325C159.769 41.325 160.694 40.7667 161.244 39.65H165.019C164.619 40.9833 163.852 42.0833 162.719 42.95C161.585 43.8 160.194 44.225 158.544 44.225C157.21 44.225 156.01 43.9333 154.944 43.35C153.894 42.75 153.069 41.9083 152.469 40.825C151.885 39.7417 151.594 38.4917 151.594 37.075C151.594 35.6417 151.885 34.3833 152.469 33.3C153.052 32.2167 153.869 31.3833 154.919 30.8C155.969 30.2167 157.177 29.925 158.544 29.925C159.86 29.925 161.035 30.2083 162.069 30.775C163.119 31.3417 163.927 32.15 164.494 33.2C165.077 34.2333 165.369 35.425 165.369 36.775ZM161.744 35.775C161.727 34.875 161.402 34.1583 160.769 33.625C160.135 33.075 159.36 32.8 158.444 32.8C157.577 32.8 156.844 33.0667 156.244 33.6C155.66 34.1167 155.302 34.8417 155.169 35.775H161.744ZM189.51 44H186.01L178.085 32.025V44H174.585V26.525H178.085L186.01 38.525V26.525H189.51V44ZM199.472 44.225C198.138 44.225 196.938 43.9333 195.872 43.35C194.805 42.75 193.963 41.9083 193.347 40.825C192.747 39.7417 192.447 38.4917 192.447 37.075C192.447 35.6583 192.755 34.4083 193.372 33.325C194.005 32.2417 194.863 31.4083 195.947 30.825C197.03 30.225 198.238 29.925 199.572 29.925C200.905 29.925 202.113 30.225 203.197 30.825C204.28 31.4083 205.13 32.2417 205.747 33.325C206.38 34.4083 206.697 35.6583 206.697 37.075C206.697 38.4917 206.372 39.7417 205.722 40.825C205.088 41.9083 204.222 42.75 203.122 43.35C202.038 43.9333 200.822 44.225 199.472 44.225ZM199.472 41.175C200.105 41.175 200.697 41.025 201.247 40.725C201.813 40.4083 202.263 39.9417 202.597 39.325C202.93 38.7083 203.097 37.9583 203.097 37.075C203.097 35.7583 202.747 34.75 202.047 34.05C201.363 33.3333 200.522 32.975 199.522 32.975C198.522 32.975 197.68 33.3333 196.997 34.05C196.33 34.75 195.997 35.7583 195.997 37.075C195.997 38.3917 196.322 39.4083 196.972 40.125C197.638 40.825 198.472 41.175 199.472 41.175ZM228.816 30.15L224.766 44H220.991L218.466 34.325L215.941 44H212.141L208.066 30.15H211.616L214.066 40.7L216.716 30.15H220.416L223.016 40.675L225.466 30.15H228.816Z" fill="white"/>
<defs>
<filter id="filter0_bd_484_147" x="-196" y="-200" width="646" height="470" filterUnits="userSpaceOnUse" color-interpolation-filters="sRGB">
<feFlood flood-opacity="0" result="BackgroundImageFix"/>
<feGaussianBlur in="BackgroundImage" stdDeviation="100"/>
<feComposite in2="SourceAlpha" operator="in" result="effect1_backgroundBlur_484_147"/>
<feColorMatrix in="SourceAlpha" type="matrix" values="0 0 0 0 0 0 0 0 0 0 0 0 0 0 0 0 0 0 127 0" result="hardAlpha"/>
<feOffset dy="4"/>
<feGaussianBlur stdDeviation="2"/>
<feComposite in2="hardAlpha" operator="out"/>
<feColorMatrix type="matrix" values="0 0 0 0 0 0 0 0 0 0 0 0 0 0 0 0 0 0 0.25 0"/>
<feBlend mode="normal" in2="effect1_backgroundBlur_484_147" result="effect2_dropShadow_484_147"/>
<feBlend mode="normal" in="SourceGraphic" in2="effect2_dropShadow_484_147" result="shape"/>
</filter>
</defs>
</svg>
