<svg width="198" height="78" viewBox="0 0 198 78" fill="none" xmlns="http://www.w3.org/2000/svg">
<g filter="url(#filter0_bd_484_154)">
<rect x="4" width="190" height="70" rx="25" fill="#1D114C" fill-opacity="0.75" shape-rendering="crispEdges"/>
</g>
<path d="M93.074 31.8C92.674 31.0667 92.124 30.5083 91.424 30.125C90.724 29.7417 89.9073 29.55 88.974 29.55C87.9407 29.55 87.024 29.7833 86.224 30.25C85.424 30.7167 84.799 31.3833 84.349 32.25C83.899 33.1167 83.674 34.1167 83.674 35.25C83.674 36.4167 83.899 37.4333 84.349 38.3C84.8157 39.1667 85.4573 39.8333 86.274 40.3C87.0907 40.7667 88.0407 41 89.124 41C90.4573 41 91.549 40.65 92.399 39.95C93.249 39.2333 93.8073 38.2417 94.074 36.975H88.074V34.3H97.524V37.35C97.2907 38.5667 96.7907 39.6917 96.024 40.725C95.2573 41.7583 94.2657 42.5917 93.049 43.225C91.849 43.8417 90.499 44.15 88.999 44.15C87.3157 44.15 85.7907 43.775 84.424 43.025C83.074 42.2583 82.0073 41.2 81.224 39.85C80.4573 38.5 80.074 36.9667 80.074 35.25C80.074 33.5333 80.4573 32 81.224 30.65C82.0073 29.2833 83.074 28.225 84.424 27.475C85.7907 26.7083 87.3073 26.325 88.974 26.325C90.9407 26.325 92.649 26.8083 94.099 27.775C95.549 28.725 96.549 30.0667 97.099 31.8H93.074ZM102.241 28.5C101.624 28.5 101.108 28.3083 100.691 27.925C100.291 27.525 100.091 27.0333 100.091 26.45C100.091 25.8667 100.291 25.3833 100.691 25C101.108 24.6 101.624 24.4 102.241 24.4C102.858 24.4 103.366 24.6 103.766 25C104.183 25.3833 104.391 25.8667 104.391 26.45C104.391 27.0333 104.183 27.525 103.766 27.925C103.366 28.3083 102.858 28.5 102.241 28.5ZM103.966 30.15V44H100.466V30.15H103.966ZM111.851 33.025V39.725C111.851 40.1917 111.96 40.5333 112.176 40.75C112.41 40.95 112.793 41.05 113.326 41.05H114.951V44H112.751C109.801 44 108.326 42.5667 108.326 39.7V33.025H106.676V30.15H108.326V26.725H111.851V30.15H114.951V33.025H111.851ZM125.621 29.95C126.671 29.95 127.604 30.1833 128.421 30.65C129.238 31.1 129.871 31.775 130.321 32.675C130.788 33.5583 131.021 34.625 131.021 35.875V44H127.521V36.35C127.521 35.25 127.246 34.4083 126.696 33.825C126.146 33.225 125.396 32.925 124.446 32.925C123.479 32.925 122.713 33.225 122.146 33.825C121.596 34.4083 121.321 35.25 121.321 36.35V44H117.821V25.5H121.321V31.875C121.771 31.275 122.371 30.8083 123.121 30.475C123.871 30.125 124.704 29.95 125.621 29.95ZM147.777 30.15V44H144.252V42.25C143.802 42.85 143.21 43.325 142.477 43.675C141.76 44.0083 140.977 44.175 140.127 44.175C139.044 44.175 138.085 43.95 137.252 43.5C136.419 43.0333 135.76 42.3583 135.277 41.475C134.81 40.575 134.577 39.5083 134.577 38.275V30.15H138.077V37.775C138.077 38.875 138.352 39.725 138.902 40.325C139.452 40.9083 140.202 41.2 141.152 41.2C142.119 41.2 142.877 40.9083 143.427 40.325C143.977 39.725 144.252 38.875 144.252 37.775V30.15H147.777ZM155.083 32.175C155.533 31.5083 156.149 30.9667 156.933 30.55C157.733 30.1333 158.641 29.925 159.658 29.925C160.841 29.925 161.908 30.2167 162.858 30.8C163.824 31.3833 164.583 32.2167 165.133 33.3C165.699 34.3667 165.983 35.6083 165.983 37.025C165.983 38.4417 165.699 39.7 165.133 40.8C164.583 41.8833 163.824 42.725 162.858 43.325C161.908 43.925 160.841 44.225 159.658 44.225C158.624 44.225 157.716 44.025 156.933 43.625C156.166 43.2083 155.549 42.675 155.083 42.025V44H151.583V25.5H155.083V32.175ZM162.408 37.025C162.408 36.1917 162.233 35.475 161.883 34.875C161.549 34.2583 161.099 33.7917 160.533 33.475C159.983 33.1583 159.383 33 158.733 33C158.099 33 157.499 33.1667 156.933 33.5C156.383 33.8167 155.933 34.2833 155.583 34.9C155.249 35.5167 155.083 36.2417 155.083 37.075C155.083 37.9083 155.249 38.6333 155.583 39.25C155.933 39.8667 156.383 40.3417 156.933 40.675C157.499 40.9917 158.099 41.15 158.733 41.15C159.383 41.15 159.983 40.9833 160.533 40.65C161.099 40.3167 161.549 39.8417 161.883 39.225C162.233 38.6083 162.408 37.875 162.408 37.025Z" fill="white"/>
<path fill-rule="evenodd" clip-rule="evenodd" d="M50 16C39.5025 16 31 24.5025 31 35C31 43.4075 36.4387 50.5088 43.9912 53.0263C44.9412 53.1925 45.2975 52.6225 45.2975 52.1238C45.2975 51.6725 45.2738 50.1763 45.2738 48.585C40.5 49.4638 39.265 47.4212 38.885 46.3525C38.6712 45.8062 37.745 44.12 36.9375 43.6687C36.2725 43.3125 35.3225 42.4337 36.9138 42.41C38.41 42.3862 39.4788 43.7875 39.835 44.3575C41.545 47.2312 44.2763 46.4238 45.3688 45.925C45.535 44.69 46.0337 43.8587 46.58 43.3837C42.3525 42.9087 37.935 41.27 37.935 34.0025C37.935 31.9362 38.6713 30.2262 39.8825 28.8962C39.6925 28.4212 39.0275 26.4737 40.0725 23.8612C40.0725 23.8612 41.6638 23.3625 45.2975 25.8088C46.8175 25.3813 48.4325 25.1675 50.0475 25.1675C51.6625 25.1675 53.2775 25.3813 54.7975 25.8088C58.4313 23.3388 60.0225 23.8612 60.0225 23.8612C61.0675 26.4737 60.4025 28.4212 60.2125 28.8962C61.4238 30.2262 62.16 31.9125 62.16 34.0025C62.16 41.2937 57.7188 42.9087 53.4913 43.3837C54.18 43.9775 54.7738 45.1175 54.7738 46.8988C54.7738 49.44 54.75 51.4825 54.75 52.1238C54.75 52.6225 55.1063 53.2163 56.0563 53.0263C63.5613 50.5088 69 43.3837 69 35C69 24.5025 60.4975 16 50 16Z" fill="white"/>
<defs>
<filter id="filter0_bd_484_154" x="-196" y="-200" width="590" height="470" filterUnits="userSpaceOnUse" color-interpolation-filters="sRGB">
<feFlood flood-opacity="0" result="BackgroundImageFix"/>
<feGaussianBlur in="BackgroundImage" stdDeviation="100"/>
<feComposite in2="SourceAlpha" operator="in" result="effect1_backgroundBlur_484_154"/>
<feColorMatrix in="SourceAlpha" type="matrix" values="0 0 0 0 0 0 0 0 0 0 0 0 0 0 0 0 0 0 127 0" result="hardAlpha"/>
<feOffset dy="4"/>
<feGaussianBlur stdDeviation="2"/>
<feComposite in2="hardAlpha" operator="out"/>
<feColorMatrix type="matrix" values="0 0 0 0 0 0 0 0 0 0 0 0 0 0 0 0 0 0 0.25 0"/>
<feBlend mode="normal" in2="effect1_backgroundBlur_484_154" result="effect2_dropShadow_484_154"/>
<feBlend mode="normal" in="SourceGraphic" in2="effect2_dropShadow_484_154" result="shape"/>
</filter>
</defs>
</svg>
