<svg width="100" height="107" viewBox="0 0 100 107" fill="none" xmlns="http://www.w3.org/2000/svg">
<path d="M19.1388 46.9841C13.6098 46.9841 9.03775 48.5185 5.42265 51.5873C1.91387 54.6561 0.159489 58.1481 0.159489 62.0635C0.159489 65.873 1.27592 68.9418 3.50877 71.2698C5.84795 73.5979 8.45295 74.7619 11.3238 74.7619C14.3009 74.7619 16.8527 73.8095 18.9793 71.9048C21.1058 70 22.1691 67.5661 22.1691 64.6032C22.1691 61.6402 21.3716 59.3651 19.7767 57.7778C18.1818 56.1905 16.2148 55.3968 13.8756 55.3968C10.1542 55.3968 7.6555 57.037 6.37959 60.3175C6.06061 61.164 5.52897 61.5873 4.78469 61.5873C3.72142 61.5873 3.29612 61.0582 3.50877 60C3.93408 56.8254 5.74163 54.3386 8.93142 52.5397C12.1212 50.7407 16.0021 49.8413 20.5742 49.8413C24.0754 49.8413 30.3515 51.7074 31.7327 52.3546L32.6899 49.6018C28.2515 47.8567 23.7345 46.9841 19.1388 46.9841Z" fill="#1D114D"/>
<path d="M35.4741 50.816C34.5495 50.3728 33.6214 49.9681 32.6899 49.6018L31.7327 52.3546C33.1139 53.0019 34.495 53.6492 34.495 53.6492L35.4741 50.816Z" fill="#1D114D"/>
<path d="M48.6443 4.44444C48.0064 5.60846 47.3153 7.35449 46.571 9.68254L32.6899 49.6018C33.6214 49.9681 34.5495 50.3728 35.4741 50.816L45.1356 22.8571H46.0925L62.9242 77.6218C58.6304 70.436 53.6578 64.3504 48.0064 59.3651C43.9022 55.703 39.7248 52.8533 35.4741 50.816L34.495 53.6492C34.495 53.6492 35.1016 53.963 35.4067 54.127C40.8293 56.9841 45.5609 60.7407 49.6013 65.3968C62.201 79.9165 66.5869 88.4921 70.9729 103.81H59.1707V106.349H100V103.81H88.6762L56.4593 0H55.9809C52.5784 0 50.1329 1.48148 48.6443 4.44444Z" fill="#1D114D"/>
<path d="M22.6475 92.2222C22.6475 89.1534 23.2323 86.0317 24.4019 82.8571L34.495 53.6492L33.1139 53.0019L31.7327 52.3546L20.5742 84.4444C18.3413 91.1111 15.7363 96.0317 12.7592 99.2064C9.88836 102.275 5.6353 103.81 0 103.81V106.349H47.2089V103.81H44.4976C38.3307 103.81 33.3865 103.333 29.6651 102.381C27.2196 101.746 25.412 100.635 24.2424 99.0476C23.1792 97.4603 22.6475 95.1852 22.6475 92.2222Z" fill="#1D114D"/>
</svg>
